<mxfile host="app.diagrams.net" modified="2022-12-24T05:01:39.653Z" agent="5.0 (Windows NT 10.0; Win64; x64) AppleWebKit/537.36 (KHTML, like Gecko) Chrome/108.0.0.0 Safari/537.36 Edg/108.0.1462.54" version="20.7.4" etag="M5XT4lzYOT5vBisNAEZ-" type="github">
  <diagram id="zBrh-kf8UhwsPA45DW_j" name="第 1 页">
    <mxGraphModel dx="930" dy="524" grid="1" gridSize="10" guides="1" tooltips="1" connect="1" arrows="1" fold="1" page="1" pageScale="1" pageWidth="827" pageHeight="1169" math="0" shadow="0">
      <root>
        <mxCell id="0" />
        <mxCell id="1" parent="0" />
        <mxCell id="QHGqXwwPspa1F1D5NM5I-14" style="edgeStyle=orthogonalEdgeStyle;rounded=0;orthogonalLoop=1;jettySize=auto;html=1;exitX=0.5;exitY=1;exitDx=0;exitDy=0;entryX=0.5;entryY=0;entryDx=0;entryDy=0;" edge="1" parent="1" source="QHGqXwwPspa1F1D5NM5I-1" target="QHGqXwwPspa1F1D5NM5I-6">
          <mxGeometry relative="1" as="geometry" />
        </mxCell>
        <mxCell id="QHGqXwwPspa1F1D5NM5I-15" style="edgeStyle=orthogonalEdgeStyle;rounded=0;orthogonalLoop=1;jettySize=auto;html=1;exitX=0.5;exitY=1;exitDx=0;exitDy=0;" edge="1" parent="1" source="QHGqXwwPspa1F1D5NM5I-1" target="QHGqXwwPspa1F1D5NM5I-9">
          <mxGeometry relative="1" as="geometry" />
        </mxCell>
        <mxCell id="QHGqXwwPspa1F1D5NM5I-16" style="edgeStyle=orthogonalEdgeStyle;rounded=0;orthogonalLoop=1;jettySize=auto;html=1;exitX=0.5;exitY=1;exitDx=0;exitDy=0;entryX=0.5;entryY=0;entryDx=0;entryDy=0;" edge="1" parent="1" source="QHGqXwwPspa1F1D5NM5I-1" target="QHGqXwwPspa1F1D5NM5I-7">
          <mxGeometry relative="1" as="geometry" />
        </mxCell>
        <mxCell id="QHGqXwwPspa1F1D5NM5I-18" style="edgeStyle=orthogonalEdgeStyle;rounded=0;orthogonalLoop=1;jettySize=auto;html=1;exitX=0.5;exitY=1;exitDx=0;exitDy=0;entryX=0.5;entryY=1;entryDx=0;entryDy=0;" edge="1" parent="1" source="QHGqXwwPspa1F1D5NM5I-1" target="QHGqXwwPspa1F1D5NM5I-8">
          <mxGeometry relative="1" as="geometry">
            <Array as="points">
              <mxPoint x="150" y="560" />
              <mxPoint x="550" y="560" />
            </Array>
          </mxGeometry>
        </mxCell>
        <mxCell id="QHGqXwwPspa1F1D5NM5I-1" value="系统时钟&lt;br&gt;clk_in" style="rounded=1;whiteSpace=wrap;html=1;" vertex="1" parent="1">
          <mxGeometry x="90" y="320" width="120" height="60" as="geometry" />
        </mxCell>
        <mxCell id="QHGqXwwPspa1F1D5NM5I-3" value="复位信号&lt;br&gt;rst_n_in" style="rounded=1;whiteSpace=wrap;html=1;" vertex="1" parent="1">
          <mxGeometry x="220" y="320" width="120" height="60" as="geometry" />
        </mxCell>
        <mxCell id="QHGqXwwPspa1F1D5NM5I-20" style="edgeStyle=orthogonalEdgeStyle;rounded=0;orthogonalLoop=1;jettySize=auto;html=1;exitX=0.5;exitY=0;exitDx=0;exitDy=0;" edge="1" parent="1" source="QHGqXwwPspa1F1D5NM5I-4">
          <mxGeometry relative="1" as="geometry">
            <mxPoint x="300" y="460" as="targetPoint" />
          </mxGeometry>
        </mxCell>
        <mxCell id="QHGqXwwPspa1F1D5NM5I-4" value="模式切换&lt;br&gt;mode_change_dot" style="rounded=1;whiteSpace=wrap;html=1;" vertex="1" parent="1">
          <mxGeometry x="240" y="490" width="120" height="60" as="geometry" />
        </mxCell>
        <mxCell id="QHGqXwwPspa1F1D5NM5I-10" style="edgeStyle=orthogonalEdgeStyle;rounded=0;orthogonalLoop=1;jettySize=auto;html=1;exitX=1;exitY=0.5;exitDx=0;exitDy=0;" edge="1" parent="1" source="QHGqXwwPspa1F1D5NM5I-6" target="QHGqXwwPspa1F1D5NM5I-9">
          <mxGeometry relative="1" as="geometry" />
        </mxCell>
        <mxCell id="QHGqXwwPspa1F1D5NM5I-6" value="ADC驱动&lt;br&gt;PCF8591驱动" style="rounded=1;whiteSpace=wrap;html=1;" vertex="1" parent="1">
          <mxGeometry x="160" y="430" width="120" height="60" as="geometry" />
        </mxCell>
        <mxCell id="QHGqXwwPspa1F1D5NM5I-7" value="数码管驱动&lt;br&gt;74HC595驱动" style="rounded=1;whiteSpace=wrap;html=1;" vertex="1" parent="1">
          <mxGeometry x="480" y="390" width="120" height="60" as="geometry" />
        </mxCell>
        <mxCell id="QHGqXwwPspa1F1D5NM5I-8" value="LCD显示屏驱动&lt;br&gt;LCD驱动" style="rounded=1;whiteSpace=wrap;html=1;" vertex="1" parent="1">
          <mxGeometry x="480" y="470" width="120" height="60" as="geometry" />
        </mxCell>
        <mxCell id="QHGqXwwPspa1F1D5NM5I-11" style="edgeStyle=orthogonalEdgeStyle;rounded=0;orthogonalLoop=1;jettySize=auto;html=1;exitX=1;exitY=0.5;exitDx=0;exitDy=0;entryX=0;entryY=0.5;entryDx=0;entryDy=0;" edge="1" parent="1" source="QHGqXwwPspa1F1D5NM5I-9" target="QHGqXwwPspa1F1D5NM5I-7">
          <mxGeometry relative="1" as="geometry" />
        </mxCell>
        <mxCell id="QHGqXwwPspa1F1D5NM5I-12" style="edgeStyle=orthogonalEdgeStyle;rounded=0;orthogonalLoop=1;jettySize=auto;html=1;exitX=1;exitY=0.5;exitDx=0;exitDy=0;entryX=0;entryY=0.5;entryDx=0;entryDy=0;" edge="1" parent="1" source="QHGqXwwPspa1F1D5NM5I-9" target="QHGqXwwPspa1F1D5NM5I-8">
          <mxGeometry relative="1" as="geometry" />
        </mxCell>
        <mxCell id="QHGqXwwPspa1F1D5NM5I-9" value="BCD译码器&lt;br&gt;BIN2BCD电路" style="rounded=1;whiteSpace=wrap;html=1;" vertex="1" parent="1">
          <mxGeometry x="320" y="430" width="120" height="60" as="geometry" />
        </mxCell>
        <mxCell id="QHGqXwwPspa1F1D5NM5I-13" value="" style="endArrow=none;html=1;rounded=0;exitX=1;exitY=0.5;exitDx=0;exitDy=0;entryX=0;entryY=0.5;entryDx=0;entryDy=0;" edge="1" parent="1" source="QHGqXwwPspa1F1D5NM5I-1" target="QHGqXwwPspa1F1D5NM5I-3">
          <mxGeometry width="50" height="50" relative="1" as="geometry">
            <mxPoint x="390" y="450" as="sourcePoint" />
            <mxPoint x="440" y="400" as="targetPoint" />
          </mxGeometry>
        </mxCell>
      </root>
    </mxGraphModel>
  </diagram>
</mxfile>
